<svg width="94" height="36" viewBox="0 0 94 36" fill="none" xmlns="http://www.w3.org/2000/svg">
<rect width="94" height="36" rx="18" fill="#003F5C"/>
<path d="M21 18.2C20.6133 18.2 20.28 18.1 20 17.9C19.72 17.7 19.5067 17.4133 19.36 17.04C19.2267 16.6667 19.1667 16.2333 19.18 15.74C19.18 15.14 19.3333 14.5467 19.64 13.96C19.9467 13.3733 20.42 12.8933 21.06 12.52C21.7 12.1333 22.5 11.94 23.46 11.94C24.18 11.94 24.86 11.9933 25.5 12.1C26.14 12.2067 26.76 12.32 27.36 12.44C27.96 12.5467 28.56 12.6 29.16 12.6C29.6667 12.6 30.12 12.56 30.52 12.48C30.92 12.4 31.2933 12.1933 31.64 11.86C31.7467 11.9667 31.8333 12.1133 31.9 12.3C31.9667 12.4733 32 12.66 32 12.86C32 13.14 31.9333 13.4133 31.8 13.68C31.6667 13.9467 31.4533 14.1733 31.16 14.36C30.88 14.5333 30.5067 14.62 30.04 14.62C29.6267 14.62 29.2133 14.5667 28.8 14.46C28.4 14.34 27.9867 14.1867 27.56 14C27.1467 13.8133 26.68 13.6133 26.16 13.4L26.14 13.32C25.78 13.1733 25.4333 13.0733 25.1 13.02C24.78 12.9533 24.4267 12.92 24.04 12.92C23.2533 12.92 22.6333 13.1733 22.18 13.68C21.7267 14.1733 21.4933 14.88 21.48 15.8C21.4667 16.1867 21.5 16.56 21.58 16.92C21.66 17.28 21.7933 17.6267 21.98 17.96C21.8333 18.04 21.6667 18.1 21.48 18.14C21.3067 18.18 21.1467 18.2 21 18.2ZM23.36 26.42C23.0933 26.42 22.8467 26.3733 22.62 26.28C22.3933 26.1867 22.2467 26.06 22.18 25.9C22.34 25.7933 22.48 25.66 22.6 25.5C22.72 25.34 22.82 25.14 22.9 24.9C22.98 24.6467 23.0533 24.34 23.12 23.98L24.68 15.94C24.8667 14.9933 25.1733 14.2867 25.6 13.82C26.04 13.34 26.7067 13.0867 27.6 13.06L25.38 24.42C25.2867 24.8867 25.1533 25.2733 24.98 25.58C24.82 25.8733 24.6067 26.0867 24.34 26.22C24.0733 26.3533 23.7467 26.42 23.36 26.42ZM28.6386 26.24L30.6386 15.8L32.5386 15.56L32.2986 17.36C32.5519 16.7867 32.9319 16.32 33.4386 15.96C33.9453 15.5867 34.5119 15.4 35.1386 15.4C35.7919 15.4 36.2653 15.5933 36.5586 15.98C36.8653 16.3667 37.0186 16.84 37.0186 17.4C37.0186 18.0667 36.8386 18.64 36.4786 19.12C36.1186 19.6 35.6453 19.84 35.0586 19.84C34.8986 19.84 34.7319 19.8133 34.5586 19.76C34.3986 19.7067 34.2719 19.6133 34.1786 19.48C34.3519 19.2533 34.4919 18.98 34.5986 18.66C34.7053 18.3267 34.7586 18.0267 34.7586 17.76C34.7586 17.5067 34.6986 17.3067 34.5786 17.16C34.4719 17.0133 34.2919 16.94 34.0386 16.94C33.7186 16.94 33.4386 17.06 33.1986 17.3C32.9586 17.5267 32.7586 17.82 32.5986 18.18C32.4386 18.54 32.3053 18.9267 32.1986 19.34C32.1053 19.74 32.0253 20.1067 31.9586 20.44L30.9786 26L28.6386 26.24ZM39.8589 26.4C39.1789 26.4 38.6256 26.24 38.1989 25.92C37.7856 25.5867 37.4789 25.14 37.2789 24.58C37.0922 24.0067 36.9989 23.3533 36.9989 22.62C36.9989 21.6333 37.1322 20.7067 37.3989 19.84C37.6656 18.96 38.0456 18.1867 38.5389 17.52C39.0456 16.8533 39.6322 16.3333 40.2989 15.96C40.9656 15.5867 41.6989 15.4 42.4989 15.4C43.1522 15.4 43.8389 15.54 44.5589 15.82L46.5789 15.56L44.9789 23.92C44.9656 24.04 44.9456 24.18 44.9189 24.34C44.8922 24.5 44.8789 24.64 44.8789 24.76C44.8789 24.96 44.9256 25.12 45.0189 25.24C45.1256 25.36 45.2856 25.4267 45.4989 25.44C45.4322 25.6667 45.3189 25.8533 45.1589 26C45.0122 26.1333 44.8389 26.2333 44.6389 26.3C44.4522 26.3667 44.2389 26.4 43.9989 26.4C43.6389 26.4 43.3322 26.3 43.0789 26.1C42.8256 25.9133 42.6789 25.6333 42.6389 25.26C42.2922 25.5933 41.8789 25.8667 41.3989 26.08C40.9322 26.2933 40.4189 26.4 39.8589 26.4ZM40.7389 25.2C41.2456 25.2 41.6522 25.0333 41.9589 24.7C42.2789 24.3667 42.5322 23.9533 42.7189 23.46C42.9056 22.9533 43.0456 22.4667 43.1389 22L44.0189 17.22C43.7522 17.0067 43.4722 16.8533 43.1789 16.76C42.8989 16.6533 42.6389 16.6 42.3989 16.6C41.9856 16.6 41.6122 16.72 41.2789 16.96C40.9589 17.2 40.6722 17.5267 40.4189 17.94C40.1789 18.3533 39.9722 18.8333 39.7989 19.38C39.6389 19.9267 39.5189 20.5133 39.4389 21.14C39.3589 21.7533 39.3189 22.3733 39.3189 23C39.3189 23.6133 39.4189 24.1333 39.6189 24.56C39.8189 24.9867 40.1922 25.2 40.7389 25.2ZM51.0058 26.4C49.8458 26.4 48.9791 26.0733 48.4058 25.42C47.8324 24.7533 47.5458 23.76 47.5458 22.44C47.5458 21.5733 47.6658 20.7267 47.9058 19.9C48.1458 19.06 48.4991 18.3067 48.9658 17.64C49.4458 16.96 50.0324 16.42 50.7258 16.02C51.4324 15.6067 52.2591 15.4 53.2058 15.4C53.7524 15.4 54.2324 15.48 54.6458 15.64C55.0724 15.7867 55.4058 16.0133 55.6458 16.32C55.8858 16.6267 56.0058 17.02 56.0058 17.5C56.0058 18.1 55.8324 18.54 55.4858 18.82C55.1391 19.1 54.7524 19.24 54.3258 19.24C54.2058 19.24 54.0591 19.2267 53.8858 19.2C53.7258 19.16 53.5991 19.08 53.5058 18.96C53.5724 18.76 53.6324 18.5333 53.6858 18.28C53.7524 18.0133 53.7858 17.7867 53.7858 17.6C53.7858 17.2667 53.7058 17.0133 53.5458 16.84C53.3991 16.6667 53.1658 16.58 52.8458 16.58C52.4458 16.58 52.0858 16.7133 51.7658 16.98C51.4458 17.2467 51.1658 17.6 50.9258 18.04C50.6991 18.4667 50.5058 18.94 50.3458 19.46C50.1858 19.98 50.0658 20.4933 49.9858 21C49.9058 21.5067 49.8658 21.96 49.8658 22.36C49.8658 23.0133 49.9924 23.5733 50.2458 24.04C50.5124 24.4933 50.9924 24.72 51.6858 24.72C52.2991 24.72 52.8124 24.54 53.2258 24.18C53.6391 23.82 53.9324 23.36 54.1058 22.8C54.3591 22.88 54.5391 23.0133 54.6458 23.2C54.7524 23.3733 54.8058 23.5867 54.8058 23.84C54.8058 24.3067 54.6391 24.7333 54.3058 25.12C53.9858 25.5067 53.5391 25.8133 52.9658 26.04C52.3924 26.28 51.7391 26.4 51.0058 26.4ZM56.0311 26.24L57.7911 17.3L59.6711 17.44C60.0178 16.7333 60.4978 16.22 61.1111 15.9C61.7244 15.5667 62.3578 15.4 63.0111 15.4C63.8244 15.4 64.4178 15.6133 64.7911 16.04C65.1778 16.4667 65.3711 17.0267 65.3711 17.72C65.3711 18.4533 65.1911 19.0733 64.8311 19.58C64.4711 20.0867 64.0111 20.5 63.4511 20.82C62.9044 21.1267 62.3444 21.38 61.7711 21.58L59.8111 21.18C60.3444 21.0467 60.8644 20.8533 61.3711 20.6C61.8778 20.3467 62.2978 20.02 62.6311 19.62C62.9644 19.22 63.1311 18.7467 63.1311 18.2C63.1311 17.36 62.7244 16.94 61.9111 16.94C61.3911 16.94 60.9644 17.1133 60.6311 17.46C60.2978 17.7933 60.0378 18.2333 59.8511 18.78C59.6644 19.3133 59.5111 19.8667 59.3911 20.44L58.3111 26L56.0311 26.24ZM63.0711 26.4C62.7644 26.4 62.4844 26.3333 62.2311 26.2C61.9778 26.0667 61.7444 25.86 61.5311 25.58C61.3178 25.3 61.1178 24.9533 60.9311 24.54C60.7444 24.1267 60.5578 23.64 60.3711 23.08C60.1978 22.52 60.0111 21.8867 59.8111 21.18H61.9511L62.9711 23.86C63.1178 24.1933 63.3111 24.5067 63.5511 24.8C63.7911 25.0933 64.0978 25.26 64.4711 25.3C64.4311 25.62 64.2911 25.88 64.0511 26.08C63.8111 26.2933 63.4844 26.4 63.0711 26.4ZM59.6711 17.68L57.7511 17.48C57.8578 16.92 57.9644 16.3067 58.0711 15.64C58.1911 14.96 58.2911 14.2933 58.3711 13.64C58.4644 12.9867 58.5111 12.4267 58.5111 11.96C58.5111 11.8 58.5044 11.66 58.4911 11.54C58.4911 11.42 58.4844 11.3067 58.4711 11.2C58.6044 11.1067 58.7578 11.04 58.9311 11C59.1178 10.9467 59.3111 10.92 59.5111 10.92C59.8578 10.92 60.1778 11.0267 60.4711 11.24C60.7778 11.44 60.9244 11.8067 60.9111 12.34C60.9111 12.5 60.8778 12.7533 60.8111 13.1C60.7578 13.4333 60.6778 13.8133 60.5711 14.24C60.4778 14.6667 60.3778 15.1067 60.2711 15.56C60.1644 16 60.0578 16.4133 59.9511 16.8C59.8444 17.1733 59.7511 17.4667 59.6711 17.68ZM68.9214 26.4C68.2414 26.4 67.6881 26.24 67.2614 25.92C66.8481 25.5867 66.5414 25.14 66.3414 24.58C66.1547 24.0067 66.0614 23.3533 66.0614 22.62C66.0614 21.6333 66.1947 20.7067 66.4614 19.84C66.7281 18.96 67.1081 18.1867 67.6014 17.52C68.1081 16.8533 68.6947 16.3333 69.3614 15.96C70.0281 15.5867 70.7614 15.4 71.5614 15.4C72.2147 15.4 72.9014 15.54 73.6214 15.82L75.6414 15.56L74.0414 23.92C74.0281 24.04 74.0081 24.18 73.9814 24.34C73.9547 24.5 73.9414 24.64 73.9414 24.76C73.9414 24.96 73.9881 25.12 74.0814 25.24C74.1881 25.36 74.3481 25.4267 74.5614 25.44C74.4947 25.6667 74.3814 25.8533 74.2214 26C74.0747 26.1333 73.9014 26.2333 73.7014 26.3C73.5147 26.3667 73.3014 26.4 73.0614 26.4C72.7014 26.4 72.3947 26.3 72.1414 26.1C71.8881 25.9133 71.7414 25.6333 71.7014 25.26C71.3547 25.5933 70.9414 25.8667 70.4614 26.08C69.9947 26.2933 69.4814 26.4 68.9214 26.4ZM69.8014 25.2C70.3081 25.2 70.7147 25.0333 71.0214 24.7C71.3414 24.3667 71.5947 23.9533 71.7814 23.46C71.9681 22.9533 72.1081 22.4667 72.2014 22L73.0814 17.22C72.8147 17.0067 72.5347 16.8533 72.2414 16.76C71.9614 16.6533 71.7014 16.6 71.4614 16.6C71.0481 16.6 70.6747 16.72 70.3414 16.96C70.0214 17.2 69.7347 17.5267 69.4814 17.94C69.2414 18.3533 69.0347 18.8333 68.8614 19.38C68.7014 19.9267 68.5814 20.5133 68.5014 21.14C68.4214 21.7533 68.3814 22.3733 68.3814 23C68.3814 23.6133 68.4814 24.1333 68.6814 24.56C68.8814 24.9867 69.2547 25.2 69.8014 25.2Z" fill="white"/>
</svg>
